<?xml version="1.0" standalone="no"?>
<!DOCTYPE svg PUBLIC "-//W3C//DTD SVG 20010904//EN"
 "http://www.w3.org/TR/2001/REC-SVG-20010904/DTD/svg10.dtd">
<svg version="1.0" xmlns="http://www.w3.org/2000/svg"
 width="369.000000pt" height="392.000000pt" viewBox="0 0 369.000000 392.000000"
 preserveAspectRatio="xMidYMid meet">
<metadata>
Created by potrace 1.16, written by Peter Selinger 2001-2019
</metadata>
<g transform="translate(0.000000,392.000000) scale(0.100000,-0.100000)"
fill="#000000" stroke="none">
<path d="M1950 3814 c-353 -39 -390 -49 -468 -119 -70 -63 -96 -126 -96 -235
-1 -73 3 -94 27 -146 51 -109 146 -179 260 -191 40 -4 93 5 222 35 94 23 211
46 260 53 165 22 346 -6 418 -64 l29 -22 -60 -90 c-80 -122 -195 -249 -328
-365 -123 -106 -263 -215 -267 -209 -143 186 -383 476 -448 542 -69 69 -101
94 -160 121 -121 56 -234 69 -344 41 -143 -37 -256 -120 -346 -253 -113 -169
-312 -614 -407 -914 -97 -303 -113 -459 -59 -564 47 -92 117 -134 226 -134 96
0 151 30 246 134 61 68 75 89 75 116 0 66 31 248 61 355 65 233 123 336 215
381 107 52 186 20 317 -131 37 -43 66 -82 65 -86 -2 -4 -70 -58 -153 -119 -82
-62 -186 -143 -230 -180 -76 -64 -81 -70 -82 -110 -1 -24 2 -51 8 -62 5 -10 6
-18 2 -17 -4 1 -11 0 -15 -1 -23 -7 -35 -3 -56 18 l-24 25 -44 -44 c-24 -24
-44 -48 -44 -55 0 -17 44 -23 70 -9 12 7 34 10 49 8 22 -4 23 -3 8 7 -19 12
-23 30 -6 30 5 0 7 -5 4 -10 -3 -5 -1 -10 4 -10 6 0 11 5 11 11 0 6 8 1 18
-12 13 -15 21 -19 26 -11 4 7 1 12 -8 12 -22 0 -20 17 3 23 23 6 50 -8 30 -15
-11 -4 -8 -12 10 -32 17 -18 20 -26 10 -27 -8 0 -3 -4 9 -10 13 -5 29 -6 34
-2 7 3 8 1 4 -6 -5 -7 1 -20 13 -30 11 -10 18 -21 14 -25 -3 -3 8 -6 26 -6 28
0 31 -2 21 -19 -15 -29 -13 -34 15 -29 18 4 26 0 30 -14 4 -10 10 -16 15 -13
4 3 10 -2 14 -10 3 -8 10 -15 16 -15 6 0 9 4 5 9 -3 5 -1 13 5 16 6 4 9 2 8
-3 -4 -14 55 -67 60 -53 6 19 22 12 22 -9 0 -11 7 -20 16 -20 11 0 14 -6 9
-22 -4 -13 -3 -18 2 -11 6 8 18 8 47 -2 21 -7 45 -11 54 -8 10 4 13 2 8 -5
-16 -26 13 -9 94 56 113 91 282 212 295 212 11 0 47 -43 233 -274 40 -50 114
-135 163 -188 80 -87 100 -103 184 -144 88 -44 100 -47 192 -52 171 -8 282 31
401 142 82 77 121 137 231 356 170 341 318 757 366 1035 23 130 30 362 16 481
-29 235 -100 413 -231 579 -170 213 -424 337 -804 391 -104 15 -532 27 -616
18z m1040 -1519 c-38 -228 -113 -457 -175 -538 -70 -91 -175 -111 -271 -51
-26 16 -74 60 -108 98 l-61 68 25 17 c124 83 457 373 551 481 28 33 54 58 56
56 3 -2 -5 -61 -17 -131z"/>
<path d="M1124 784 c-35 -80 -47 -146 -42 -238 3 -68 10 -91 37 -143 59 -111
168 -194 298 -228 116 -31 543 -12 718 31 74 18 130 57 173 119 92 135 76 309
-38 423 -99 98 -192 113 -410 64 -221 -49 -270 -56 -390 -56 -125 -1 -231 24
-282 64 -15 11 -29 20 -33 20 -3 0 -17 -25 -31 -56z"/>
</g>
</svg>
